<?xml version="1.0" encoding="UTF-8" standalone="no"?>
<!-- Generator: Adobe Illustrator 12.0.0, SVG Export Plug-In . SVG Version: 6.00 Build 51448)  -->

<svg
   xmlns:dc="http://purl.org/dc/elements/1.1/"
   xmlns:cc="http://creativecommons.org/ns#"
   xmlns:rdf="http://www.w3.org/1999/02/22-rdf-syntax-ns#"
   xmlns:svg="http://www.w3.org/2000/svg"
   xmlns="http://www.w3.org/2000/svg"
   xmlns:sodipodi="http://sodipodi.sourceforge.net/DTD/sodipodi-0.dtd"
   xmlns:inkscape="http://www.inkscape.org/namespaces/inkscape"
   version="1.1"
   id="Layer_1"
   width="76.706787"
   height="104.0053"
   viewBox="0 0 76.706787 104.0053"
   overflow="visible"
   enable-background="new 0 0 354.346 659.055"
   xml:space="preserve"
   sodipodi:docname="java.svg"
   style="overflow:visible"
   inkscape:version="0.92.4 (unknown)"><metadata
   id="metadata35"><rdf:RDF><cc:Work
       rdf:about=""><dc:format>image/svg+xml</dc:format><dc:type
         rdf:resource="http://purl.org/dc/dcmitype/StillImage" /><dc:title></dc:title></cc:Work></rdf:RDF></metadata><defs
   id="defs33" /><sodipodi:namedview
   pagecolor="#ffffff"
   bordercolor="#666666"
   borderopacity="1"
   objecttolerance="10"
   gridtolerance="10"
   guidetolerance="10"
   inkscape:pageopacity="0"
   inkscape:pageshadow="2"
   inkscape:window-width="2560"
   inkscape:window-height="1312"
   id="namedview31"
   showgrid="false"
   fit-margin-top="0"
   fit-margin-left="0"
   fit-margin-right="0"
   fit-margin-bottom="0"
   inkscape:zoom="2.0256543"
   inkscape:cx="305.94815"
   inkscape:cy="-13.797587"
   inkscape:window-x="0"
   inkscape:window-y="54"
   inkscape:window-maximized="1"
   inkscape:current-layer="Layer_1" />
<g
   id="g28"
   transform="matrix(0.23007218,0,0,0.23007218,-2.2503058,0)">
	<path
   d="m 117.151,349.592 c 0,0 -17.265,10.049 12.301,13.44 35.824,4.09 54.13,3.501 93.596,-3.959 0,0 10.397,6.504 24.892,12.137 -88.501,37.917 -200.296,-2.197 -130.789,-21.618 z"
   id="path2"
   inkscape:connector-curvature="0"
   style="clip-rule:evenodd;fill:#0074bd;fill-rule:evenodd" />
	<path
   d="m 106.331,300.104 c 0,0 -19.367,14.339 10.221,17.397 38.271,3.951 68.483,4.275 120.792,-5.792 0,0 7.218,7.332 18.585,11.339 -106.986,31.294 -226.147,2.462 -149.598,-22.944 z"
   id="path4"
   inkscape:connector-curvature="0"
   style="clip-rule:evenodd;fill:#0074bd;fill-rule:evenodd" />
	<path
   d="m 197.494,216.145 c 21.818,25.115 -5.721,47.697 -5.721,47.697 0,0 55.367,-28.577 29.945,-64.38 -23.752,-33.373 -41.962,-49.951 56.623,-107.124 10e-4,0 -154.754,38.641 -80.847,123.807 z"
   id="path6"
   inkscape:connector-curvature="0"
   style="clip-rule:evenodd;fill:#ea2d2e;fill-rule:evenodd" />
	<path
   d="m 314.542,386.202 c 0,0 12.781,10.536 -14.077,18.684 -51.071,15.469 -212.604,20.135 -257.47,0.619 -16.117,-7.02 14.121,-16.75 23.635,-18.805 9.92,-2.146 15.584,-1.754 15.584,-1.754 -17.937,-12.631 -115.935,24.807 -49.772,35.544 180.429,29.246 328.895,-13.173 282.1,-34.288 z"
   id="path8"
   inkscape:connector-curvature="0"
   style="clip-rule:evenodd;fill:#0074bd;fill-rule:evenodd" />
	<path
   d="m 125.46,248.822 c 0,0 -82.155,19.519 -29.092,26.613 22.412,2.999 67.063,2.309 108.685,-1.183 34.006,-2.854 68.133,-8.958 68.133,-8.958 0,0 -11.982,5.14 -20.657,11.06 -83.444,21.947 -244.612,11.726 -198.207,-10.712 39.227,-18.977 71.138,-16.82 71.138,-16.82 z"
   id="path10"
   inkscape:connector-curvature="0"
   style="clip-rule:evenodd;fill:#0074bd;fill-rule:evenodd" />
	<path
   d="m 272.846,331.198 c 84.818,-44.063 45.597,-86.412 18.223,-80.708 -6.694,1.397 -9.697,2.607 -9.697,2.607 0,0 2.494,-3.907 7.243,-5.588 54.155,-19.03 95.794,56.146 -17.464,85.919 -0.001,0 1.302,-1.18 1.695,-2.23 z"
   id="path12"
   inkscape:connector-curvature="0"
   style="clip-rule:evenodd;fill:#0074bd;fill-rule:evenodd" />
	<path
   d="m 221.719,0 c 0,0 46.963,46.99 -44.557,119.227 -73.393,57.969 -16.734,91.009 -0.026,128.778 C 134.291,209.352 102.865,175.321 123.944,143.653 154.898,97.174 240.663,74.632 221.719,0 Z"
   id="path14"
   inkscape:connector-curvature="0"
   style="clip-rule:evenodd;fill:#ea2d2e;fill-rule:evenodd" />
	<path
   d="m 133.799,450.637 c 81.397,5.204 206.426,-2.896 209.385,-41.415 0,0 -5.688,14.602 -67.276,26.188 -69.481,13.081 -155.197,11.558 -206.016,3.167 0,0 10.411,8.617 63.907,12.06 z"
   id="path16"
   inkscape:connector-curvature="0"
   style="clip-rule:evenodd;fill:#0074bd;fill-rule:evenodd" />
	
	
	
	
	
</g>
</svg>